<svg xmlns="http://www.w3.org/2000/svg" xmlns:xlink="http://www.w3.org/1999/xlink">
  <symbol id="line" viewBox="0 0 24 24">
    <path d=" M 1 6 H 23 M 1 12 H 23 M 1 18 H 23" stroke="white"/>
  </symbol>
  <symbol id="cross" viewBox="0 0 24 24">
    <path d="M 1 23 L 23 1 M 23 23 L 1 1" stroke="#141517" stroke-opacity="0.2" stroke-linecap="round" stroke-linejoin="round"/>
  </symbol>
  <symbol id="next" viewBox="0 0 8 12">
    <path fill-rule="evenodd" clip-rule="evenodd" d="M0 1.4L4.6 6L0 10.6L1.4 12L7.4 6L1.4 0L0 1.4Z" fill="#2C2E3F" fill-opacity="0.5"/>
  </symbol>
  <symbol id="phone" viewBox="0 0 17 24" fill="none">
    <path d="M1.39635 6.62432C1.31179 5.42623 1.57753 4.24606 2.28114 3.29684C2.89115 2.43632 3.68536 1.96636 4.64264 1.69172C5.44893 1.4525 5.9774 1.74561 6.20992 2.64204C6.54211 3.98224 7.01622 5.3225 7.18836 6.73361C7.24271 7.35485 6.84108 8.23322 6.40623 8.6856C5.31608 9.75888 5.54257 10.5399 6.37 12.1643C6.62669 12.6881 7.03436 13.5934 7.82858 14.7919C8.65601 15.9992 9.09389 16.6472 10.1569 16.0975C11.3376 15.5035 12.1983 15.8855 13.0891 16.8444C13.6931 17.5369 14.3574 18.1318 14.9614 18.8243C15.8341 19.8542 15.7949 20.5641 15.1124 21.2915C13.8833 22.6309 11.854 23.0736 10.3441 22.1766C9.51064 21.6881 8.68018 21.0487 8.01884 20.303C5.10471 16.9825 3.00291 13.1212 1.73759 8.76321C1.53526 8.02654 1.44165 7.28104 1.39635 6.62432Z" stroke-width="2"/>
  </symbol>
  <symbol id="arrow" viewBox="0 0 16 16" fill="none">
    <path d="M8 1V15" stroke="white" stroke-width="2" stroke-linecap="round" stroke-linejoin="round"/>
    <path d="M15 8L8 15L1 8" stroke="white" stroke-width="2" stroke-linecap="round" stroke-linejoin="round"/>
  </symbol>
</svg>
